<?xml version="1.0" encoding="utf-8"?>
<!-- Generator: Adobe Illustrator 23.0.1, SVG Export Plug-In . SVG Version: 6.00 Build 0)  -->
<svg version="1.1" id="Layer_1" xmlns="http://www.w3.org/2000/svg" xmlns:xlink="http://www.w3.org/1999/xlink" x="0px" y="0px"
	 viewBox="0 0 180 45" style="enable-background:new 0 0 180 45;" xml:space="preserve">
<path d="M107.4,4.8c0,2,0,4,0,6c0,0.2-0.3,0.6-0.4,0.7c0,0-0.3,0.5-0.3,0.4c-0.1-0.9-3.1-0.1-3.6,0c0,0,0,0,0,0c0-0.8,0-1.6,0-2.4
	c0-0.2,0.3-0.6,0.4-0.7c0,0,0.3-0.5,0.3-0.4c0,0.6,0,1.2,0,1.7c0,0.1-0.1,0.6,0,0.7c0,0,0.3-0.1,0.4-0.1c0.4-0.1,1.7-0.4,2.5-0.3
	c0-1.5,0-2.9,0-4.4c0-0.2,0.3-0.6,0.4-0.7C107.1,5.1,107.4,4.7,107.4,4.8z M65.2,5.2c-0.1,0.2-0.4,0.5-0.4,0.8c0,1.4,0,2.9,0,4.3
	c-1-0.2-2.8,0.2-3.2,0.3c-0.2,0.1-0.5,0.2-0.8,0.2c-0.2,0-0.1,0-0.1-0.3c0-0.7,0-1.4,0-2.1c0-0.1-0.3,0.3-0.3,0.4
	C60.3,9,60,9.3,60,9.5c0,0.8,0,1.6,0,2.4c0,0,0,0,0,0c0.7-0.2,4.7-1.2,4.8,0c0,0.1,0.3-0.3,0.3-0.4c0.1-0.2,0.4-0.5,0.4-0.7
	c0-2,0-4,0-6C65.5,4.7,65.2,5.1,65.2,5.2z M75.5,6.2L75.5,6.2L75.5,6.2L75.5,6.2z M81,5.8c0-0.2,0.2-0.4,0.3-0.6
	c0.2-0.3,0.3-0.5,0.4-0.5c0.2,0.1,0.4,0.3,0.6,0.4c0.9,0.1,2.6-0.3,3-0.4c0,0,0,0,0,0c-0.2,0.8-0.3,1.5-0.3,2.3c0,0,0,0.1,0,0.1
	c0.2,0.2,0.3,0.4,0.4,0.6c0.2,0.4-0.1,0.9-0.3,1.2c-0.1,0.3-0.2,0.4-0.2,0.3c-0.2,0.2-0.4,0.3-0.5-0.1c-0.1-0.3-0.1-0.6-0.1-0.9
	c-0.5-0.5-1.1-0.9-1.6-1.3c-0.3-0.3-0.7-0.5-1-0.7c-0.3,0-0.5-0.2-0.6-0.4c0,0,0,0,0,0C81,5.9,81,5.9,81,5.8C81,5.9,81,5.9,81,5.8
	L81,5.8C81,5.9,81,5.9,81,5.8z M83.6,6.2c0.2,0.2,0.5,0.3,0.7,0.5c0.1,0,0.1,0.1,0.2,0.1c0.1-0.2,0.1-0.5,0.1-0.8
	c0-0.2,0.1-0.1,0-0.1c-0.1,0-0.4,0.1-0.5,0.1C83.9,6.1,83.8,6.1,83.6,6.2z M87,5.9C87,5.9,87,5.9,87,5.9c0.1-0.3,0.2-0.5,0.3-0.6
	c0.2-0.3,0.3-0.5,0.4-0.5c0.2,0.1,0.4,0.3,0.6,0.4c0.9,0.1,2.6-0.3,3-0.4c0,0,0,0,0,0c-0.2,0.8-0.3,1.5-0.3,2.3c0,0,0,0.1,0,0.1
	c0.2,0.2,0.3,0.4,0.4,0.6c0.2,0.4-0.1,0.9-0.3,1.2c-0.1,0.3-0.2,0.4-0.2,0.3c-0.2,0.2-0.4,0.3-0.5-0.1c-0.1-0.3-0.1-0.6-0.1-0.9
	c-0.5-0.5-1.1-0.9-1.6-1.3c-0.3-0.3-0.7-0.5-1-0.7C87.3,6.3,87.1,6.2,87,5.9C87,6,87,6,87,5.9C87,6,87,5.9,87,5.9L87,5.9
	C87,5.9,87,5.9,87,5.9z M89.6,6.2c0.2,0.2,0.5,0.3,0.7,0.5c0.1,0,0.1,0.1,0.2,0.1c0.1-0.2,0.1-0.5,0.1-0.8c0-0.2,0.1-0.1,0-0.1
	c-0.1,0-0.4,0.1-0.5,0.1C89.9,6.1,89.8,6.1,89.6,6.2z M98.8,1.6c-0.1,0.2-0.4,0.5-0.4,0.7c0,2.4,0,4.8,0,7.2c0,0.1,0.3-0.3,0.3-0.4
	c0.1-0.2,0.4-0.5,0.4-0.7c0-2.4,0-4.8,0-7.2C99.1,1.1,98.8,1.5,98.8,1.6z M110.1,1.6c-0.1,0.2-0.4,0.5-0.4,0.7c0,2.4,0,4.8,0,7.2
	c0,0.1,0.3-0.3,0.3-0.4c0.1-0.2,0.4-0.5,0.4-0.7c0-2.4,0-4.8,0-7.2C110.4,1.1,110.1,1.5,110.1,1.6z M120,8.5
	c-0.1,0.3-0.5,1.1-0.6,1.1c-2.4,0-4.8,0-7.2,0c0,0,0-0.1,0.1-0.2c0-0.1,0.1-0.2,0.1-0.2c0-0.1,0.1-0.1,0.1-0.2
	c0.1-0.1,0.2-0.5,0.4-0.5l0,0c0.4-0.4,0.8-0.8,1.3-1.3c-0.4-0.3-0.7-0.7-0.7-1.2c0-0.2,0.3-0.6,0.4-0.7c0,0,0.3-0.5,0.3-0.4
	c0,0.6,0.6,1,1,1.3c0.1-0.1,0.1-0.1,0.1-0.2c0,0,0,0.1-0.1,0.2c0.6,0.4,1.3,0.8,1.9,1.1c0.9,0.4,1.9,0.8,2.9,1.1
	C120,8.4,120,8.4,120,8.5C120,8.5,120,8.5,120,8.5z M116.3,8.4L116.3,8.4c-0.5-0.2-1.3-0.6-1.9-1c-0.3,0.3-0.7,0.7-1,1
	C114.3,8.4,115.3,8.4,116.3,8.4z M94.9,0.9C94.7,0.7,94,0.4,94,0c0-0.1-0.3,0.3-0.3,0.4c-0.1,0.2-0.4,0.5-0.4,0.7
	c0,0.4,0.5,0.7,0.8,0.9c0,0,0.1,0,0.1,0.1c0,0.1-0.1,0.2-0.1,0.2c0,2.4,0,4.8,0,7.3c-4.3,0-8.6,0-12.9,0c-3,0-5.9,0-8.9,0
	c-0.9,0-1.8,0-2.7,0c-0.2,0-0.4,0.1-0.6,0c-0.1-0.1-0.1,0-0.1-0.2c0-2.7,0-5.4,0-8.1c0-0.1-0.3,0.3-0.3,0.4
	c-0.1,0.2-0.4,0.5-0.4,0.7c0,2.8,0,5.6,0,8.4c0,0,0,0,0,0c2.9,0,5.8,0,8.7,0c4.6,0,9.3,0,13.9,0c1.1,0,2.1,0,3.2,0
	c0.2,0,0.7-1,0.7-1.1c0-2.4,0-4.7,0-7.1c0.1,0.1,0.2,0.2,0.2,0.4c0,0.1,0.3-0.3,0.3-0.4c0.1-0.2,0.4-0.5,0.4-0.7
	C95.8,1.4,95.3,1.1,94.9,0.9z M72.5,2c0,0,0.1,0,0.1,0.1c0,0.1-0.1,0.2-0.1,0.2c0,2.4,0,4.8,0,7.2c0,0,0,0,0,0
	c1.1-0.9,2.2-1.9,3.1-3.1c0.3,0.3,0.7,0.5,1,0.7c0.6,0.4,1.1,0.8,1.6,1.2c0.3,0.3,0.9,0.7,0.9,1.2c0,0.1,0.3-0.3,0.3-0.4
	c0.1-0.2,0.4-0.5,0.4-0.7c0-0.9-1.2-1.5-1.8-2c-0.4-0.3-0.9-0.6-1.3-0.9c-0.1-0.1-0.2-0.2-0.3-0.2c0.1-0.2,0.1-0.4,0-0.5
	c-0.4-0.2-0.7,0.5-0.8,0.7c-0.2,0.3-0.3,0.5-0.2,0.7c0,0,0.1-0.1,0.2-0.2c0,0,0,0,0,0l0,0c-0.1,0.1-0.2,0.2-0.2,0.2c0,0,0,0,0,0h0
	c-0.1,0.2-0.2,0.3-0.4,0.4C74.7,7,74.4,7.4,74,7.7c-0.2,0.2-0.5,0.5-0.7,0.6c0,0,0,0,0,0c0-0.1,0-0.2,0-0.3c0-0.4,0-0.8,0-1.2
	c0-1.1,0-2.3,0-3.4c0-0.3,0-0.6,0-1c0.1,0.1,0.2,0.2,0.2,0.4c0,0.1,0.3-0.3,0.3-0.4c0.1-0.2,0.4-0.5,0.4-0.7c0-0.4-0.5-0.7-0.8-0.9
	c-0.3-0.2-0.9-0.5-1-0.9c0-0.1-0.3,0.3-0.3,0.4c-0.1,0.2-0.4,0.5-0.4,0.7C71.7,1.5,72.2,1.8,72.5,2z M83.5,2.4
	c0.1-0.1,0.2-0.3,0.2-0.4c0,0,0.1-0.2,0.1-0.2c-0.2-0.2-0.4-0.4-0.6-0.6c0,0-0.4,0.5-0.4,0.6c-0.1,0.1-0.2,0.3-0.2,0.4
	c0,0-0.1,0.2-0.1,0.2c0.2,0.2,0.4,0.4,0.6,0.6C83.1,3,83.5,2.4,83.5,2.4z M63.1,6.3c0.1-0.1,0.2-0.3,0.2-0.4c0,0,0.1-0.2,0.1-0.2
	c-0.2-0.2-0.4-0.4-0.6-0.6c0,0-0.4,0.5-0.4,0.6c-0.1,0.1-0.2,0.3-0.2,0.4c0,0-0.1,0.2-0.1,0.2c0.2,0.2,0.4,0.4,0.6,0.6
	C62.7,6.9,63.1,6.3,63.1,6.3z M91,2.4c0.1-0.1,0.2-0.3,0.2-0.4c0,0,0.1-0.2,0.1-0.2c-0.2-0.2-0.4-0.4-0.6-0.6c0,0-0.4,0.5-0.4,0.6
	c-0.1,0.1-0.2,0.3-0.2,0.4c0,0-0.1,0.2-0.1,0.2c0.2,0.2,0.4,0.4,0.6,0.6C90.6,3,91,2.4,91,2.4z M88,2.4c0.1-0.1,0.2-0.3,0.2-0.4
	c0,0,0.1-0.2,0.1-0.2c-0.2-0.2-0.4-0.4-0.6-0.6c0,0-0.4,0.5-0.4,0.6c-0.1,0.1-0.2,0.3-0.2,0.4c0,0-0.1,0.2-0.1,0.2
	c0.2,0.2,0.4,0.4,0.6,0.6C87.6,3,88,2.4,88,2.4z M8.6,28.3c-0.2-1.6-0.4-5.3-0.4-5.8c0-0.4,0.3-0.8,0.7-0.9v-0.2H6.4
	c0,0.3-0.1,1.2-0.3,2l-1.2,4.2l-1.7-6.3H0.4v0.2c0.6,0.1,1.2,0.6,1.1,1.2L1.1,28C1,28.9,0.3,29.2,0,29.2v0.2h2.5v-0.2
	C2.2,29.2,1.3,29,1.4,28l0.4-4.8L3.7,30c0.5-0.5,1-0.8,1.6-1.1c0,0-0.1-0.5,0-1.2c0.1-0.6,0.8-3.1,1.2-4.4l0.3,5
	c0,0.5-0.3,0.8-0.6,0.9v0.2h3v-0.2C8.9,29.2,8.6,28.9,8.6,28.3z M23.3,26.8L21.5,21c-0.6,0.4-1.2,0.7-1.7,0.8c0,0.2,0,0.4,0,0.6
	c0,0.5-0.1,0.8-0.7,3.1c-0.1,0.5-0.2,0.8-0.7,2.3c-0.4,1.2-1,1.4-1.4,1.5v0.2h2.6v-0.2c-0.4,0-0.9-0.2-0.9-1.1
	c0-0.3,0.1-0.8,0.3-1.4h2.3l0.1,0.4c0.2,0.5,0.3,1,0.3,1.2c0,0.6-0.3,0.7-0.6,0.9v0.2h3.5v-0.2C23.9,28.9,23.6,28,23.3,26.8z
	 M19.1,26.4c0.1-0.3,0.2-0.6,0.3-0.9c0.3-1.2,0.7-2.4,0.7-2.9l1.2,3.8H19.1z M33.1,29.4h3v-0.2c-0.2-0.1-0.6-0.2-0.6-1.1v-5.4
	c0-0.9,0.5-1,0.6-1.1v-0.2h-3v0.2c0.1,0.1,0.6,0.2,0.6,1.1v5.4c0,0.9-0.4,1-0.6,1.1V29.4z M48.1,29.5c1.6,0,2.8-0.9,2.8-2.5
	c0-3.1-4.6-2.2-4.6-4.5c0-0.5,0.3-0.9,1-0.9c0.9,0,2.1,0.9,2.8,2.6h0.3l-0.5-2.9h-0.1c-0.6,0.6-1.1,0.1-2.5,0.1
	c-1.2,0-2.4,1.1-2.4,2.4c0,2.7,4.6,2.5,4.6,4.4c0,0.7-0.5,1.1-1.5,1.1c-1.6,0-2.4-1.9-3-3.4h-0.3l0.6,3.7h0.1
	C46.2,28.9,46.8,29.5,48.1,29.5z M63.1,29.5c2.4,0,3.9-1.9,3.9-4.1c0-2.2-1.5-4.1-3.8-4.1c-2.4,0-3.9,1.9-3.9,4.1
	C59.4,27.7,60.9,29.5,63.1,29.5z M65.3,26.8c0,1.3-0.5,2.4-1.5,2.4c-1.5,0-2.6-3.2-2.6-4.9c0-1.5,0.4-2.6,1.4-2.6
	C64.1,21.7,65.3,24.9,65.3,26.8z M80.3,21.5v0.2c0.2,0.1,0.9,0.3,0.9,1.2l0.1,4.8l-3.7-6.3h-2.5v0.2c0.4,0.1,1.1,0.4,1.1,1.2l0,5
	c0,1-0.8,1.2-1,1.3v0.2h2.4v-0.2c-0.2-0.1-1-0.3-1-1.3l0-4.8l3.9,6.8c0.4-0.4,1-0.8,1.5-1c-0.3-0.5-0.4-0.9-0.4-1.6l0-4.4
	c0-0.9,0.7-1.2,0.9-1.2v-0.2H80.3z M101.6,29.5c1.6,0,2.5-1.1,2.8-2.6l-0.2,0c-0.5,1.2-1.3,1.4-1.9,1.4c-1.9,0-2.7-2-2.7-3.6
	c0-1.9,0.8-3,1.9-3c1.5,0,2.2,1.6,2.6,3.2h0.3l-0.5-3.3c-1,0.7-1.1-0.1-2.3-0.1c-1.9,0-3.7,1.8-3.7,4.2
	C97.8,27.7,99.3,29.5,101.6,29.5z M118.6,26.8l-1.8-5.8c-0.6,0.4-1.2,0.7-1.7,0.8c0,0.2,0,0.4,0,0.6c0,0.5-0.1,0.8-0.7,3.1
	c-0.1,0.5-0.2,0.8-0.7,2.3c-0.4,1.2-1,1.4-1.4,1.5v0.2h2.6v-0.2c-0.4,0-0.9-0.2-0.9-1.1c0-0.3,0.1-0.8,0.3-1.4h2.3l0.1,0.4
	c0.2,0.5,0.3,1,0.3,1.2c0,0.6-0.3,0.7-0.6,0.9v0.2h3.5v-0.2C119.2,28.9,119,28,118.6,26.8z M114.4,26.4c0.1-0.3,0.2-0.6,0.3-0.9
	c0.3-1.2,0.7-2.4,0.7-2.9l1.2,3.8H114.4z M133.7,21.1c-0.3,0.2-0.8,0.4-1.5,0.4h-3.9v0.2c0.1,0.1,0.5,0.3,0.5,1.2v5.3
	c0,0.7-0.4,1-0.5,1.1v0.2h3v-0.2c-0.2-0.1-0.5-0.4-0.5-1.1V25h0.3c1.2,0,1.5,0.4,1.6,1.1h0.2v-2.4h-0.2c-0.1,0.7-0.4,1.1-1.6,1.1
	h-0.3v-3h0.5c1.7,0,2.3,1.1,2.8,1.8h0.3L133.7,21.1z M149.1,21.1c-0.2,0.2-1,0.4-1.8,0.4h-2.8c-0.9,0-1.5-0.2-1.8-0.4l-0.5,2.8h0.3
	c0.2-0.6,0.7-2.2,2.4-2.2v6.4c0,0.8-0.4,1-0.6,1.1v0.2h3v-0.2c-0.2-0.1-0.5-0.3-0.5-1.1v-6.4h0c1.7,0,2.2,1.6,2.4,2.2h0.3
	L149.1,21.1z M163.2,26.8l-1.8-5.8c-0.6,0.4-1.2,0.7-1.7,0.8c0,0.2,0,0.4,0,0.6c0,0.5-0.1,0.8-0.7,3.1c-0.1,0.5-0.2,0.8-0.7,2.3
	c-0.4,1.2-1,1.4-1.4,1.5v0.2h2.6v-0.2c-0.4,0-0.9-0.2-0.9-1.1c0-0.3,0.1-0.8,0.3-1.4h2.3l0.1,0.4c0.2,0.5,0.3,1,0.3,1.2
	c0,0.6-0.3,0.7-0.6,0.9v0.2h3.5v-0.2C163.8,28.9,163.5,28,163.2,26.8z M158.9,26.4c0.1-0.3,0.2-0.6,0.3-0.9c0.3-1.2,0.7-2.4,0.7-2.9
	l1.2,3.8H158.9z M177.8,21.5v0.2c0.2,0.1,0.9,0.3,0.9,1.2l0.1,4.8l-3.7-6.3h-2.5v0.2c0.4,0.1,1.1,0.4,1.1,1.2l0,5c0,1-0.8,1.2-1,1.3
	v0.2h2.4v-0.2c-0.2-0.1-1-0.3-1-1.3l0-4.8l3.9,6.8c0.4-0.4,1-0.8,1.5-1c-0.3-0.5-0.4-0.9-0.4-1.6l0-4.4c0-0.9,0.7-1.2,0.9-1.2v-0.2
	H177.8z M45.5,44.2c-0.1-0.8-0.2-2.7-0.2-2.9c0-0.2,0.1-0.4,0.3-0.4v-0.1h-1.1c0,0.2,0,0.6-0.2,1l-0.6,2.2l-0.9-3.3h-1.2v0.1
	c0.3,0,0.5,0.2,0.5,0.6l-0.2,2.7c0,0.4-0.4,0.5-0.5,0.6v0.1h1.2v-0.1c-0.2,0-0.5-0.1-0.5-0.6l0.2-2.6l1,3.5c0.2-0.2,0.4-0.3,0.6-0.4
	c0-0.1,0-0.3,0-0.7c0.1-0.3,0.5-1.7,0.7-2.4l0.2,2.7c0,0.3-0.1,0.4-0.3,0.4v0.1h1.4v-0.1C45.6,44.7,45.5,44.5,45.5,44.2z M56.9,43.6
	l-0.9-3c-0.2,0.1-0.5,0.3-0.7,0.3c0,0.1,0,0.2,0,0.3c0,0.2-0.1,0.5-0.4,1.6c-0.1,0.3-0.2,0.6-0.4,1.2c-0.2,0.5-0.4,0.6-0.6,0.6v0.1
	h1.2v-0.1c-0.2,0-0.4-0.1-0.4-0.5c0-0.2,0.1-0.5,0.2-0.8h1.2l0.1,0.3c0.1,0.2,0.1,0.5,0.1,0.6c0,0.3-0.1,0.3-0.3,0.4v0.1h1.6v-0.1
	C57.2,44.6,57.1,44.1,56.9,43.6z M54.9,43.3c0-0.1,0.1-0.3,0.1-0.4c0.2-0.6,0.4-1.2,0.4-1.5l0.6,1.9H54.9z M68.7,44.3L68,43l-0.6,0
	v-0.1h0.2c0.7,0,1.3-0.3,1.3-1c0-0.7-0.7-1.1-1.5-1.1h-1.5v0.1c0.1,0,0.3,0.1,0.3,0.5v2.8c0,0.3-0.2,0.5-0.3,0.5v0.1h1.4v-0.1
	c-0.1,0-0.3-0.2-0.3-0.5v-1.3h0.2l0.9,1.5c0.1,0.2,0.3,0.3,0.5,0.3h0.7v-0.1C69.1,44.7,68.9,44.6,68.7,44.3z M66.9,40.9H67
	c0.6,0,1.1,0.4,1.1,1c0,0.5-0.3,0.9-0.7,0.9c-0.2,0-0.4,0-0.5,0V40.9z M80.3,44.3L79.5,43L79,43v-0.1h0.2c0.7,0,1.3-0.3,1.3-1
	c0-0.7-0.7-1.1-1.5-1.1h-1.5v0.1c0.1,0,0.3,0.1,0.3,0.5v2.8c0,0.3-0.2,0.5-0.3,0.5v0.1h1.4v-0.1c-0.1,0-0.3-0.2-0.3-0.5v-1.3h0.2
	l0.9,1.5c0.1,0.2,0.3,0.3,0.5,0.3h0.7v-0.1C80.7,44.7,80.5,44.6,80.3,44.3z M78.4,40.9h0.2c0.6,0,1.1,0.4,1.1,1
	c0,0.5-0.3,0.9-0.7,0.9c-0.2,0-0.4,0-0.5,0V40.9z M91.7,43.6l-0.9-3c-0.2,0.1-0.5,0.3-0.7,0.3c0,0.1,0,0.2,0,0.3
	c0,0.2-0.1,0.5-0.4,1.6c-0.1,0.3-0.2,0.6-0.4,1.2c-0.2,0.5-0.4,0.6-0.6,0.6v0.1h1.2v-0.1c-0.2,0-0.4-0.1-0.4-0.5
	c0-0.2,0.1-0.5,0.2-0.8h1.2l0.1,0.3C91,44,91,44.2,91,44.3c0,0.3-0.1,0.3-0.3,0.4v0.1h1.6v-0.1C92,44.6,91.8,44.1,91.7,43.6z
	 M89.6,43.3c0-0.1,0.1-0.3,0.1-0.4c0.2-0.6,0.4-1.2,0.4-1.5l0.6,1.9H89.6z M103.5,44.1l-0.9-1.6l-0.7,0.2l0.8-0.9
	c0.5-0.5,0.8-0.9,1.3-1v-0.1h-1.4v0.1c0.4,0,0.5,0.3,0,0.9l-1,1.1v-1.5c0-0.4,0.2-0.5,0.3-0.5v-0.1h-1.4v0.1c0.1,0,0.3,0.1,0.3,0.5
	v2.8c0,0.4-0.2,0.5-0.3,0.5v0.1h1.4v-0.1c-0.1,0-0.3-0.1-0.3-0.5V43l0.2-0.2l0.9,1.5c0.2,0.3,0.4,0.4,0.6,0.4h0.8v-0.1
	C103.8,44.7,103.7,44.5,103.5,44.1z M115.2,43.6c-0.2,0.6-0.7,1.1-1.4,1.1c-0.2,0-0.5-0.1-0.6-0.1v-2h0.4c0.5,0,0.7,0.2,0.8,0.5h0.1
	v-1.1h-0.1c0,0.3-0.2,0.5-0.8,0.5h-0.4v-1.5h0.4c1,0,1.3,0.5,1.5,0.9h0.1l-0.4-1.2c-0.1,0.1-0.3,0.2-0.7,0.2h-2v0.1
	c0.1,0,0.3,0.2,0.3,0.5v2.9c0,0.3-0.2,0.4-0.3,0.4v0.1h2.1c0.5,0,0.6,0.1,0.7,0.2l0.4-1.3H115.2z M125.3,44.8c0.7,0,1.2-0.6,1.3-1.3
	l-0.1,0c-0.2,0.6-0.6,0.8-1,0.8c-1,0-1.4-1-1.4-1.9c0-1,0.5-1.6,1.1-1.6c0.7,0,1.1,0.8,1.3,1.6h0.1l-0.2-1.6
	c-0.4,0.3-0.5-0.1-1.1-0.1c-0.9,0-1.8,0.9-1.8,2.1C123.5,43.9,124.2,44.8,125.3,44.8z M138.7,40.9L138.7,40.9l-1.4-0.1v0.1
	c0.1,0,0.3,0.1,0.3,0.5v1.3h-1.5v-1.3c0-0.4,0.2-0.5,0.3-0.5v-0.1H135v0.1c0.1,0,0.3,0.1,0.3,0.5v2.8c0,0.4-0.2,0.5-0.3,0.5v0.1h1.4
	v-0.1c-0.1,0-0.3-0.1-0.3-0.5v-1.4h1.5v1.4c0,0.4-0.2,0.5-0.3,0.5v0.1h1.4v-0.1c-0.1,0-0.3-0.1-0.3-0.5v-2.8
	C138.4,41,138.5,40.9,138.7,40.9z"/>
</svg>
